{"title":"The Gundown 2011 BRRip XviD Ac3 Feel-Free","uid":6657876,"size":1167130624,"categoryP":"video","categoryS":"movies","magnet":"?xt=urn:btih:fc5f5368fb7ea8fd2cbcf3f5e1e75b3f400c13bf&amp;dn=The+Gundown+2011+BRRip+XviD+Ac3+Feel-Free&amp;tr=udp%3A%2F%2Ftracker.openbittorrent.com%3A80&amp;tr=udp%3A%2F%2Fopen.demonii.com%3A1337&amp;tr=udp%3A%2F%2Ftracker.coppersurfer.tk%3A6969&amp;tr=udp%3A%2F%2Fexodus.desync.com%3A6969","seeders":0,"leechers":0,"uploader":"hiest","files":-1,"time":1315395781,"description":"Full Credits To Feel Free :)\n\n ######## ######## ######## ##          ######## ########  ######## ######## \n ##       ##       ##       ##          ##       ##     ## ##       ##       \n ##       ##       ##       ##          ##       ##     ## ##       ##       \n ######   ######   ######   ##          ######   ########  ######   ######   \n ##       ##       ##       ##          ##       ##   ##   ##       ##       \n ##       ##       ##       ##          ##       ##    ##  ##       ##       \n ##       ######## ######## ########    ##       ##     ## ######## ########\n\nGenre:Western \n Language:English\n IMDb:http://www.imdb.com/title/tt1555110/\n Source:1080P Thanks!\n\n Format : AVI\n Format/Info : Audio Video Interleave\n File size : 1.09 GiB\n Duration : 1h 36mn\n Overall bit rate : 1 607 Kbps\n\n Video\n ID : 0\n Format : MPEG-4 Visual\n Format profile : Advanced Simple@L5\n Format settings, BVOP : Yes\n Format settings, QPel : No\n Format settings, GMC : No warppoints\n Format settings, Matrix : Default (H.263)\n Codec ID : XVID\n Codec ID/Hint : XviD\n Duration : 1h 36mn\n Bit rate : 1 150 Kbps\n Width : 640 pixels\n Height : 360 pixels\n Display aspect ratio : 16:9\n Frame rate : 23.976 fps\n Color space : YUV\n Chroma subsampling : 4:2:0\n Bit depth : 8 bits\n Scan type : Progressive\n Bits/(Pixel*Frame) : 0.208\n Stream size : 796 MiB (72%)\n Writing library : XviD 1.2.1 (UTC 2008-12-04)\n\n Audio\n ID : 1\n Format : AC-3\n Format/Info : Audio Coding 3\n Mode extension : CM (complete main)\n Codec ID : 2000\n Duration : 1h 36mn\n Bit rate mode : Constant\n Bit rate : 448 Kbps\n Channel(s) : 6 channels\n Channel positions : Front: L C R, Side: L R, LFE\n Sampling rate : 48.0 KHz\n Bit depth : 16 bits\n Stream size : 310 MiB (28%)\n Alignment : Aligned on interleaves\n Interleave, duration : 42 ms (1.00 video frame)\n Interleave, preload duration : 512 ms\n\n\n Screen SHots:\n\n &lt;a href=&quot; http://www.pix2links.com/images/91925987048774541899.png&quot; rel=&quot;nofollow&quot; target=&quot;_NEW&quot;&gt; http://www.pix2links.com/images/91925987048774541899.png&lt;/a&gt;\n\n &lt;a href=&quot; http://www.pix2links.com/images/29571395623040118580.png&quot; rel=&quot;nofollow&quot; target=&quot;_NEW&quot;&gt; http://www.pix2links.com/images/29571395623040118580.png&lt;/a&gt;\n\n &lt;a href=&quot; http://www.pix2links.com/images/56966618030212949392.png&quot; rel=&quot;nofollow&quot; target=&quot;_NEW&quot;&gt; http://www.pix2links.com/images/56966618030212949392.png&lt;/a&gt;\n\n &lt;a href=&quot; http://www.pix2links.com/images/03617754812590167524.png&quot; rel=&quot;nofollow&quot; target=&quot;_NEW&quot;&gt; http://www.pix2links.com/images/03617754812590167524.png&lt;/a&gt;\n\n Plot:\n Seeking revenge and justice, Cole Brandt finds himself in the lawless town of \n Dead River where he is faced with one last bloody showdown for freedom in order \n to protect The Majestic Saloon and a beautiful woman.\n\nFull Credits To Feel Free :)\n\n ######## ######## ######## ##          ######## ########  ######## ######## \n ##       ##       ##       ##          ##       ##     ## ##       ##       \n ##       ##       ##       ##          ##       ##     ## ##       ##       \n ######   ######   ######   ##          ######   ########  ######   ######   \n ##       ##       ##       ##          ##       ##   ##   ##       ##       \n ##       ##       ##       ##          ##       ##    ##  ##       ##       \n ##       ######## ######## ########    ##       ##     ## ######## ########","torrent":{"xt":"urn:btih:fc5f5368fb7ea8fd2cbcf3f5e1e75b3f400c13bf","amp;dn":"The+Gundown+2011+BRRip+XviD+Ac3+Feel-Free","amp;tr":["udp%3A%2F%2Ftracker.openbittorrent.com%3A80","udp%3A%2F%2Fopen.demonii.com%3A1337","udp%3A%2F%2Ftracker.coppersurfer.tk%3A6969","udp%3A%2F%2Fexodus.desync.com%3A6969"],"infoHash":"fc5f5368fb7ea8fd2cbcf3f5e1e75b3f400c13bf","infoHashBuffer":{"type":"Buffer","data":[252,95,83,104,251,126,168,253,44,188,243,245,225,231,91,63,64,12,19,191]},"announce":[],"urlList":[]}}